<?xml version="1.0" encoding="UTF-8" standalone="no"?>
<svg
   id="Layer_1"
   data-name="Layer 1"
   viewBox="0 0 96 96"
   version="1.1"
   sodipodi:docname="48x48 px.svg"
   inkscape:export-filename="/home/vignesh-18261/Downloads/48x48_px.png"
   inkscape:export-xdpi="96"
   inkscape:export-ydpi="96"
   inkscape:version="1.1.2 (0a00cf5339, 2022-02-04)"
   xmlns:inkscape="http://www.inkscape.org/namespaces/inkscape"
   xmlns:sodipodi="http://sodipodi.sourceforge.net/DTD/sodipodi-0.dtd"
   xmlns="http://www.w3.org/2000/svg"
   xmlns:svg="http://www.w3.org/2000/svg">
  <sodipodi:namedview
     id="namedview19"
     pagecolor="#ffffff"
     bordercolor="#666666"
     borderopacity="1.0"
     inkscape:pageshadow="2"
     inkscape:pageopacity="0.0"
     inkscape:pagecheckerboard="0"
     showgrid="false"
     inkscape:zoom="7.4895831"
     inkscape:cx="49.001392"
     inkscape:cy="111.02087"
     inkscape:window-width="1920"
     inkscape:window-height="1136"
     inkscape:window-x="0"
     inkscape:window-y="0"
     inkscape:window-maximized="1"
     inkscape:current-layer="Layer_1" />
  <defs
     id="defs4">
    <style
       id="style2">.cls-1{fill:#303ab7;}.cls-2,.cls-4{fill:#ff7373;}.cls-3{fill:#fff;}.cls-4{font-size:11.46px;font-family:AltoneTrial-Bold, Altone Trial;font-weight:700;}.cls-5{fill:#434edd;}</style>
  </defs>
  <rect
     class="cls-1"
     x="8.3237457"
     y="72.471161"
     width="78.077461"
     height="7.6105647"
     id="rect6"
     style="stroke-width:0.972931" />
  <path
     class="cls-2"
     d="M 47.367242,4.1648471 A 36.995094,38.579404 0 0 0 10.391203,42.813799 c 0,1.142578 0.05716,2.285157 0.152439,3.397928 l 6.097569,2.414318 A 31.278623,32.618126 0 0 1 16.90798,35.54104 c 0.12386,-0.586192 0.257241,-0.933933 0.952744,-0.923999 4.258772,0 8.517542,0 12.776314,0 a 1.7625785,1.8380607 0 0 1 0.362043,0.06955 v 16.135193 h -1.12424 c -2.534303,0 -5.068604,0 -7.621961,0 l 14.510308,5.742697 a 4.0396395,4.2126364 0 0 1 0.952746,-1.887738 4.7065611,4.9081189 0 0 1 0,-3.974185 h -0.790778 a 75.867096,79.116094 0 0 1 0,-16.085516 H 57.73311 a 75.867096,79.116094 0 0 1 0,16.085516 h -1.04802 c 0.08575,0.208645 0.15244,0.43716 0.219132,0.655741 a 12.214193,12.737264 0 0 1 0.342987,3.546959 3.7442885,3.9046371 0 0 1 1.600613,1.987093 L 83.905019,48.566432 A 35.975658,37.516309 0 0 0 84.324228,42.605154 36.966512,38.549597 0 0 0 47.367242,4.1648471 Z M 31.923243,28.566345 H 19.451809 c 0.952746,-5.375086 11.547272,-15.310549 17.540039,-16.40345 a 50.77179,52.946084 0 0 0 -5.068605,16.40345 z m 5.821273,0 c 0.323934,-1.480384 0.590702,-2.901155 0.952745,-4.292121 a 30.706976,32.021998 0 0 1 4.068222,-10.372623 13.786222,14.376615 0 0 1 2.620049,-2.980639 2.8582354,2.980639 0 0 1 4.049168,0.09936 9.7561105,10.173914 0 0 1 1.90549,1.987093 c 3.24886,4.610056 4.52554,9.935464 5.649778,15.598678 z M 57.752164,12.202637 c 5.020967,0.198709 16.196668,10.611075 17.568621,16.343837 H 62.811241 C 61.810859,22.873324 60.438905,17.329336 57.73311,12.212572 Z m 20.064814,37.75476 c -0.114328,0.526579 -0.228659,0.874321 -0.866998,0.864386 l -13.014499,-0.05961 a 0.75266867,0.78490159 0 0 1 -0.209604,0 V 34.597171 h 5.602141 c 2.448556,0 4.906637,0 7.36472,0 0.714559,0 0.952745,0.218581 1.133766,0.993546 a 31.44059,32.787028 0 0 1 -0.02858,14.376615 z"
     id="path8"
     style="stroke-width:0.972931" />
  <path
     class="cls-3"
     d="m 16.850814,49.709011 c -0.07621,-0.377548 -0.142911,-0.74516 -0.209603,-1.122708 l 5.640251,2.23548 c -1.371953,0 -2.734379,0 -4.096804,0 -0.857471,0.03974 -1.171876,-0.268258 -1.333844,-1.112772 z"
     id="path10"
     style="stroke-width:0.972931" />
  <path
     class="cls-1"
     d="m 8.3809105,41.879865 c 3.5156295,1.132643 6.8978745,2.394448 10.3658675,3.30851 5.182933,1.351222 10.480197,2.404382 15.625021,3.715863 4.992384,1.261804 9.413122,3.606573 12.576236,8.027854 a 1.9054904,1.9870926 0 0 0 0.428735,0.307999 c 0.952744,-1.073029 1.90549,-2.205672 2.924927,-3.179348 3.487047,-3.268767 7.793456,-4.689538 12.233248,-5.762568 5.716471,-1.38103 11.375777,-2.682576 17.035084,-4.153024 2.258006,-0.586193 4.420737,-1.549932 6.802601,-2.404381 0,0.635869 0.0667,1.182319 0.0667,1.72877 0,3.586701 -0.04763,7.173404 0,10.750171 a 1.8483257,1.9274799 0 0 1 -1.591085,2.285157 c -5.49734,1.4009 -10.975625,2.980639 -16.482491,4.331861 -7.278974,1.847996 -13.83386,5.096894 -19.264507,10.611076 -0.952746,0.993546 -1.905491,1.559867 -3.096422,0.337805 C 39.07836,64.522787 30.255939,61.49247 20.938092,59.505377 17.127111,58.690669 13.459042,57.448736 9.7052262,56.445254 A 1.667304,1.7387061 0 0 1 8.2570535,54.458162 c 0.07622,-3.705927 0,-7.401921 0,-11.097913 0.019056,-0.54645 0.095274,-1.033288 0.123857,-1.480384 z"
     id="path12"
     style="stroke-width:0.972931" />
  <text
     xml:space="preserve"
     style="font-style:normal;font-weight:normal;font-size:40px;line-height:1.25;font-family:sans-serif;fill:#000000;fill-opacity:1;stroke:none"
     x="18.296831"
     y="86.644562"
     id="text90451"><tspan
       sodipodi:role="line"
       id="tspan90449"
       x="18.296831"
       y="86.644562" /></text>
  <text
     xml:space="preserve"
     style="font-style:normal;font-weight:normal;font-size:40px;line-height:1.25;font-family:sans-serif;fill:#000000;fill-opacity:1;stroke:none"
     x="102.18359"
     y="64.151596"
     id="text92975"><tspan
       sodipodi:role="line"
       id="tspan92973"
       x="102.18359"
       y="64.151596" /></text>
</svg>
